<?xml version="1.0" encoding="UTF-8" standalone="no"?>
<!-- Created with Inkscape (http://www.inkscape.org/) -->

<svg
   width="174.03763mm"
   height="148.63751mm"
   viewBox="0 0 174.03763 148.63751"
   version="1.1"
   id="svg5"
   xmlns="http://www.w3.org/2000/svg"
   xmlns:svg="http://www.w3.org/2000/svg">
  <defs
     id="defs2">
    <linearGradient
       id="linearGradient8782">
      <stop
         style="stop-color:#000000;stop-opacity:1;"
         offset="0"
         id="stop8780" />
    </linearGradient>
  </defs>
  <g
     id="layer1"
     transform="translate(-13.258334,-3.4687499)">
    <rect
       style="opacity:0.5;fill:#ffffff;fill-opacity:1;stroke:#808080;stroke-width:1;stroke-dasharray:none;stroke-opacity:1"
       id="rect5980"
       width="173.03763"
       height="147.6375"
       x="13.758333"
       y="3.96875"
       ry="20.392664" />
    <rect
       style="opacity:0;fill:#ff5555;stroke:#0000ff;stroke-width:0.271258"
       id="rect118"
       width="110.5065"
       height="90.695396"
       x="60.900158"
       y="35.526859"
       transform="matrix(0.99567196,0.09293736,0.09682927,0.99530101,0,0)" />
    <rect
       style="opacity:1;fill:#5599ff;stroke:#4d4d4d;stroke-width:1.5;stroke-dasharray:none"
       id="rect396"
       width="80.533768"
       height="53"
       x="68.92395"
       y="12.261041"
       ry="2.3945353" />
    <rect
       style="opacity:1;fill:#666666;stroke:#4d4d4d;stroke-width:1.5;stroke-dasharray:none"
       id="rect2171"
       width="21.746344"
       height="9.6217833"
       x="98.248978"
       y="33.527248"
       ry="3.6181145" />
    <text
       xml:space="preserve"
       style="font-size:3.175px;opacity:1;fill:none;stroke:none;stroke-width:1.5;stroke-dasharray:none"
       x="105.81293"
       y="9.0556927"
       id="text3220"><tspan
         style="fill:none;stroke:none;stroke-width:1.5"
         x="105.81293"
         y="9.0556927"
         id="tspan3374">****</tspan></text>
    <rect
       style="opacity:1;fill:#808080;fill-opacity:1;fill-rule:nonzero;stroke:#808080;stroke-width:0.664;stroke-dasharray:none"
       id="rect4384"
       width="78.708374"
       height="51.042698"
       x="113.21842"
       y="78.642181"
       ry="2.7595837"
       transform="matrix(1,0,-0.5383676,0.84271011,0,0)" />
    <rect
       style="fill:#808080;fill-opacity:1;fill-rule:nonzero;stroke:#4d4d4d;stroke-width:0.269382;stroke-dasharray:none"
       id="rect4384-7"
       width="31.931728"
       height="20.707855"
       x="133.02444"
       y="106.68604"
       ry="1.119554"
       transform="matrix(1,0,-0.5383676,0.84271011,0,0)" />
    <rect
       style="opacity:1;fill:#808080;fill-opacity:0.279793;fill-rule:nonzero;stroke:#808080;stroke-width:0.25;stroke-dasharray:none;stroke-opacity:0.575129"
       id="rect5322"
       width="24.805286"
       height="3.7263644"
       x="96.691681"
       y="60.334755"
       rx="1.2235794"
       ry="1.7241353" />
    <rect
       style="opacity:1;fill:#666666;fill-opacity:1;fill-rule:nonzero;stroke:none;stroke-width:0.194611;stroke-dasharray:none;stroke-opacity:0.575129"
       id="rect6940"
       width="78.942223"
       height="1.224076"
       x="69.849709"
       y="13.014033"
       ry="0.61203802"
       rx="0.65002924" />
    <rect
       style="opacity:1;fill:#333333;fill-opacity:1;fill-rule:nonzero;stroke:#333333;stroke-width:0.349706;stroke-dasharray:none;stroke-opacity:0.575129"
       id="rect8542"
       width="48.338154"
       height="24.321175"
       x="137.05948"
       y="82.885757"
       rx="1.8690497"
       ry="1.4674855"
       transform="matrix(0.99998762,0.00497575,-0.58895527,0.80816564,0,0)" />
    <ellipse
       style="fill:#333333;fill-opacity:1;fill-rule:nonzero;stroke:#4d4d4d;stroke-width:0.339718;stroke-dasharray:none;stroke-opacity:0.575129"
       id="path8602-5"
       cx="61.069614"
       cy="100.62617"
       rx="39.597092"
       ry="45.496189" />
    <ellipse
       style="opacity:1;fill:#333333;fill-opacity:1;fill-rule:nonzero;stroke:#4d4d4d;stroke-width:0.25;stroke-dasharray:none;stroke-opacity:0.575129"
       id="path8602"
       cx="63.532738"
       cy="46.175728"
       rx="32.641685"
       ry="29.888769" />
    <rect
       style="opacity:1;fill:#ffd42a;fill-opacity:1;fill-rule:nonzero;stroke:none;stroke-width:0.25;stroke-dasharray:none;stroke-opacity:0.575129"
       id="rect9421"
       width="37.9902"
       height="9.5958681"
       x="121.65112"
       y="54.903275"
       ry="2.7595837"
       transform="rotate(-12.113314)" />
    <path
       style="fill:#ffd42a;stroke-width:0.264583"
       id="path4168"
       d="m 143.01974,73.915319 -3.11079,-5.628884 -3.1108,-5.628883 6.43015,0.120415 6.43016,0.120414 -3.31936,5.508469 z"
       transform="rotate(-13.209112,-0.59292754,71.193494)" />
    <path
       style="fill:#ffd42a;stroke-width:0.264583"
       id="path4168-3"
       d="m 143.01974,73.915319 -3.11079,-5.628884 -3.1108,-5.628883 6.43015,0.120415 6.43016,0.120414 -3.31936,5.508469 z"
       transform="rotate(-13.209112,-2.2309542,41.54526)" />
    <path
       style="fill:#ffd42a;stroke-width:0.264583"
       id="path4168-7"
       d="m 143.01974,73.915319 -3.11079,-5.628884 -3.1108,-5.628883 6.43015,0.120415 6.43016,0.120414 -3.31936,5.508469 z"
       transform="rotate(-13.209112,-6.3646779,10.997163)" />
    <ellipse
       style="fill:#ffd42a;fill-opacity:1;stroke:#ffd42a;stroke-width:0.315324"
       id="path4813"
       cx="158.3423"
       cy="60.250534"
       rx="10.426892"
       ry="10.403786"
       transform="matrix(0.97720798,-0.21228418,0.20743281,0.97824927,0,0)" />
    <path
       style="fill:#000000;fill-opacity:1;stroke:none;stroke-width:0.264583"
       id="path5156"
       d="m 104.95675,44.363402 c -0.0581,0.119036 -1.69435,-0.635323 -1.8061,-0.564219 -0.11318,0.07202 -0.15162,1.885704 -0.28544,1.895036 -0.13214,0.0092 -0.29697,-1.785004 -0.41442,-1.846229 -0.11896,-0.06201 -1.70888,0.81154 -1.78388,0.700311 -0.074,-0.109821 1.39738,-1.149682 1.39168,-1.282011 -0.006,-0.134024 -1.55726,-1.074163 -1.49843,-1.194725 0.0581,-0.119036 1.69434,0.635323 1.80609,0.564219 0.11318,-0.07202 0.15163,-1.885704 0.28545,-1.895036 0.13213,-0.0092 0.29697,1.785004 0.41442,1.846229 0.11896,0.06201 1.70888,-0.81154 1.78387,-0.700311 0.074,0.109821 -1.39737,1.149682 -1.39167,1.282011 0.006,0.134024 1.55726,1.074163 1.49843,1.194725 z"
       transform="matrix(0.91654873,0,0,0.91654873,17.261457,-1.3709289)" />
    <path
       style="fill:#000000;fill-opacity:1;stroke:none;stroke-width:0.264583"
       id="path5156-3"
       d="m 104.95675,44.363402 c -0.0581,0.119036 -1.69435,-0.635323 -1.8061,-0.564219 -0.11318,0.07202 -0.15162,1.885704 -0.28544,1.895036 -0.13214,0.0092 -0.29697,-1.785004 -0.41442,-1.846229 -0.11896,-0.06201 -1.70888,0.81154 -1.78388,0.700311 -0.074,-0.109821 1.39738,-1.149682 1.39168,-1.282011 -0.006,-0.134024 -1.55726,-1.074163 -1.49843,-1.194725 0.0581,-0.119036 1.69434,0.635323 1.80609,0.564219 0.11318,-0.07202 0.15163,-1.885704 0.28545,-1.895036 0.13213,-0.0092 0.29697,1.785004 0.41442,1.846229 0.11896,0.06201 1.70888,-0.81154 1.78387,-0.700311 0.074,0.109821 -1.39737,1.149682 -1.39167,1.282011 0.006,0.134024 1.55726,1.074163 1.49843,1.194725 z"
       transform="matrix(0.91654873,0,0,0.91654873,21.582068,-1.3712809)" />
    <path
       style="fill:#000000;fill-opacity:1;stroke:none;stroke-width:0.264583"
       id="path5156-5"
       d="m 108.16064,44.293242 c -0.0581,0.119036 -1.69434,-0.635323 -1.80609,-0.564219 -0.11318,0.07202 -0.15163,1.885704 -0.28545,1.895036 -0.13213,0.0092 -0.29696,-1.785004 -0.41442,-1.846229 -0.11895,-0.06201 -1.70888,0.81154 -1.78387,0.700311 -0.074,-0.109821 1.39738,-1.149682 1.39167,-1.282011 -0.006,-0.134024 -1.55725,-1.074163 -1.49842,-1.194725 0.0581,-0.119036 1.69434,0.635323 1.80609,0.564219 0.11318,-0.07202 0.15162,-1.885704 0.28545,-1.895036 0.13213,-0.0092 0.29696,1.785004 0.41441,1.846229 0.11896,0.06201 1.70888,-0.81154 1.78388,-0.700311 0.074,0.109821 -1.39738,1.149682 -1.39167,1.282011 0.006,0.134025 1.55725,1.074164 1.49842,1.194725 z"
       transform="matrix(0.91654873,0,0,0.91654873,10.003403,-1.3069759)" />
    <path
       style="fill:#000000;fill-opacity:1;stroke:none;stroke-width:0.264583"
       id="path5156-5-8"
       d="m 108.16064,44.293242 c -0.0581,0.119036 -1.69434,-0.635323 -1.80609,-0.564219 -0.11318,0.07202 -0.15163,1.885704 -0.28545,1.895036 -0.13213,0.0092 -0.29696,-1.785004 -0.41442,-1.846229 -0.11895,-0.06201 -1.70888,0.81154 -1.78387,0.700311 -0.074,-0.109821 1.39738,-1.149682 1.39167,-1.282011 -0.006,-0.134024 -1.55725,-1.074163 -1.49842,-1.194725 0.0581,-0.119036 1.69434,0.635323 1.80609,0.564219 0.11318,-0.07202 0.15162,-1.885704 0.28545,-1.895036 0.13213,-0.0092 0.29696,1.785004 0.41441,1.846229 0.11896,0.06201 1.70888,-0.81154 1.78388,-0.700311 0.074,0.109821 -1.39738,1.149682 -1.39167,1.282011 0.006,0.134025 1.55725,1.074164 1.49842,1.194725 z"
       transform="matrix(0.91654873,0,0,0.91654873,5.5508094,-1.3066249)" />
    <ellipse
       style="fill:#ffffff;fill-opacity:1;stroke:none;stroke-width:0.313862"
       id="path5682"
       cx="169.98032"
       cy="24.398275"
       rx="2.7084999"
       ry="2.7086108" />
    <text
       xml:space="preserve"
       style="font-size:25.7168px;opacity:0.5;fill:#0066ff;fill-opacity:1;stroke:none;stroke-width:0;stroke-dasharray:none;stroke-opacity:1"
       x="98.083107"
       y="134.52734"
       id="text9035"><tspan
         id="tspan9033"
         style="fill:#0066ff;fill-opacity:1;stroke:none;stroke-width:0;stroke-dasharray:none"
         x="98.083107"
         y="134.52734">MLAPS</tspan></text>
  </g>
</svg>
